<svg xmlns="http://www.w3.org/2000/svg" xmlns:xlink="http://www.w3.org/1999/xlink" width="159.144" height="32.784" fill="#000000"><rect x="0" y="0" width="100%" height="100%" fill="#ffffff"/><path fill="#000000" d="M11.18 21.82L9.17 23.83L3.36 18.02L9.17 12.22L11.18 14.23L7.25 18.02L11.18 21.82ZM24.94 22.87L24.94 25.58Q23.59 25.84 22.30 25.81Q21.01 25.78 20.00 25.35Q18.98 24.92 18.46 23.98L18.46 23.98Q17.98 23.09 17.95 22.17Q17.93 21.25 17.93 20.09L17.93 20.09L17.93 15.14L15.72 15.14L15.72 12.62L17.93 12.62L17.93 9.02L21.19 9.02L21.19 12.62L24.94 12.62L24.94 15.14L21.19 15.14L21.19 19.90Q21.19 20.65 21.21 21.26Q21.23 21.86 21.46 22.22L21.46 22.22Q21.89 22.91 22.84 22.97Q23.78 23.03 24.94 22.87L24.94 22.87ZM39.96 25.58L36.65 25.58L36.65 19.46Q36.65 19.02 36.60 18.33Q36.55 17.64 36.30 16.94Q36.05 16.25 35.48 15.78Q34.91 15.31 33.86 15.31L33.86 15.31Q33.44 15.31 32.96 15.44Q32.48 15.58 32.06 15.95Q31.64 16.33 31.37 17.06Q31.10 17.80 31.10 19.01L31.10 19.01L31.10 25.58L27.79 25.58L27.79 8.30L30.70 8.30L30.70 13.96Q31.14 13.45 31.74 13.07L31.74 13.07Q32.99 12.24 34.90 12.24L34.90 12.24Q36.42 12.24 37.38 12.76Q38.34 13.27 38.87 14.06Q39.41 14.86 39.64 15.71Q39.86 16.57 39.91 17.28Q39.96 17.99 39.96 18.31L39.96 18.31L39.96 25.58ZM46.58 10.82L43.32 10.82L43.32 7.94L46.58 7.94L46.58 10.82ZM46.58 25.58L43.32 25.58L43.32 12.62L46.58 12.62L46.58 25.58ZM62.33 25.58L59.02 25.58L59.02 19.46Q59.02 19.02 58.97 18.33Q58.92 17.64 58.67 16.94Q58.42 16.25 57.85 15.78Q57.28 15.31 56.23 15.31L56.23 15.31Q55.81 15.31 55.33 15.44Q54.85 15.58 54.43 15.95Q54.01 16.33 53.74 17.06Q53.47 17.80 53.47 19.01L53.47 19.01L53.47 25.58L50.16 25.58L50.16 12.62L53.06 12.62L53.06 13.96Q53.51 13.45 54.11 13.07L54.11 13.07Q55.36 12.24 57.26 12.24L57.26 12.24Q58.79 12.24 59.75 12.76Q60.71 13.27 61.24 14.06Q61.78 14.86 62.00 15.71Q62.23 16.57 62.28 17.28Q62.33 17.99 62.33 18.31L62.33 18.31L62.33 25.58ZM68.76 25.58L65.42 25.58L65.45 8.30L68.76 8.30L68.76 18.86L73.15 12.62L77.18 12.62L72.50 19.10L77.50 25.58L73.25 25.58L68.76 19.34L68.76 25.58ZM90.84 25.58L87.53 25.58L87.53 19.46Q87.53 19.02 87.48 18.33Q87.43 17.64 87.18 16.94Q86.93 16.25 86.36 15.78Q85.79 15.31 84.74 15.31L84.74 15.31Q84.32 15.31 83.84 15.44Q83.36 15.58 82.94 15.95Q82.52 16.33 82.25 17.06Q81.98 17.80 81.98 19.01L81.98 19.01L81.98 25.58L78.67 25.58L78.67 8.30L81.58 8.30L81.58 13.96Q82.02 13.45 82.62 13.07L82.62 13.07Q83.87 12.24 85.78 12.24L85.78 12.24Q87.30 12.24 88.26 12.76Q89.22 13.27 89.75 14.06Q90.29 14.86 90.52 15.71Q90.74 16.57 90.79 17.28Q90.84 17.99 90.84 18.31L90.84 18.31L90.84 25.58ZM99.79 25.94L99.79 25.94Q97.84 25.94 96.36 25.07Q94.88 24.19 94.06 22.65Q93.24 21.11 93.24 19.10L93.24 19.10Q93.24 17.08 94.08 15.53Q94.92 13.99 96.40 13.13Q97.87 12.26 99.79 12.26L99.79 12.26Q101.75 12.26 103.23 13.14Q104.71 14.02 105.54 15.56Q106.37 17.10 106.37 19.10L106.37 19.10Q106.37 21.12 105.53 22.66Q104.70 24.20 103.22 25.07Q101.74 25.94 99.79 25.94ZM99.79 22.90L99.79 22.90Q101.36 22.90 102.14 21.83Q102.91 20.77 102.91 19.10L102.91 19.10Q102.91 17.38 102.13 16.34Q101.34 15.31 99.79 15.31L99.79 15.31Q98.72 15.31 98.04 15.79Q97.36 16.27 97.03 17.12Q96.70 17.98 96.70 19.10L96.70 19.10Q96.70 20.84 97.48 21.87Q98.27 22.90 99.79 22.90ZM127.87 25.58L124.61 25.58L124.61 17.93Q124.61 16.64 124.00 15.93Q123.40 15.22 122.33 15.22L122.33 15.22Q121.64 15.22 121.14 15.53Q120.64 15.85 120.35 16.42Q120.07 16.99 120.07 17.74L120.07 17.74L120.07 25.58L116.81 25.58L116.81 17.93Q116.81 16.64 116.20 15.93Q115.60 15.22 114.53 15.22L114.53 15.22Q113.51 15.22 112.89 15.92Q112.27 16.62 112.27 17.74L112.27 17.74L112.27 25.58L108.98 25.58L108.98 12.62L111.86 12.62L111.86 14.04Q112.43 13.34 113.26 12.90L113.26 12.90Q114.32 12.31 115.66 12.31L115.66 12.31Q117.18 12.31 118.16 12.96L118.16 12.96Q118.97 13.50 119.42 14.33L119.42 14.33Q120.04 13.42 121.03 12.88L121.03 12.88Q122.09 12.31 123.38 12.31L123.38 12.31Q125.60 12.31 126.74 13.63Q127.87 14.94 127.87 17.06L127.87 17.06L127.87 25.58ZM136.78 25.94L136.78 25.94Q134.78 25.94 133.27 25.09Q131.75 24.23 130.89 22.72Q130.03 21.22 130.03 19.27L130.03 19.27Q130.03 17.15 130.87 15.58Q131.71 14.00 133.19 13.13Q134.66 12.26 136.58 12.26L136.58 12.26Q138.62 12.26 140.05 13.22Q141.48 14.18 142.16 15.92Q142.85 17.66 142.64 20.02L142.64 20.02L133.55 20.02Q133.70 21.18 134.28 21.90L134.28 21.90Q135.06 22.90 136.58 22.90L136.58 22.90Q137.54 22.90 138.23 22.48Q138.91 22.06 139.27 21.26L139.27 21.26L142.54 22.20Q141.80 23.98 140.23 24.96Q138.65 25.94 136.78 25.94ZM133.63 17.59L139.34 17.59Q139.20 16.54 138.79 15.96L138.79 15.96Q138.16 15.10 136.73 15.10L136.73 15.10Q135.06 15.10 134.28 16.10L134.28 16.10Q133.82 16.69 133.63 17.59L133.63 17.59ZM155.78 18.02L149.98 23.83L147.96 21.82L151.90 18.02L147.96 14.23L149.98 12.22L155.78 18.02Z"/></svg>