<svg xmlns="http://www.w3.org/2000/svg" width="41.616" height="32.784" viewBox="0 0 41.616 32.784" fill="none">
  <path fill="#042eff" d="M11.18 21.82L9.17 23.83L3.36 18.02L9.17 12.22L11.18 14.23L7.25 18.02L11.18 21.82ZM24.94 22.87L24.94 25.58Q23.59 25.84 22.30 25.81Q21.01 25.78 20.00 25.35Q18.98 24.92 18.46 23.98L18.46 23.98Q17.98 23.09 17.95 22.17Q17.93 21.25 17.93 20.09L17.93 20.09L17.93 15.14L15.72 15.14L15.72 12.62L17.93 12.62L17.93 9.02L21.19 9.02L21.19 12.62L24.94 12.62L24.94 15.14L21.19 15.14L21.19 19.90Q21.19 20.65 21.21 21.26Q21.23 21.86 21.46 22.22L21.46 22.22Q21.89 22.91 22.84 22.97Q23.78 23.03 24.94 22.87L24.94 22.87ZM38.26 18.02L32.45 23.83L30.43 21.82L34.37 18.02L30.43 14.23L32.45 12.22L38.26 18.02Z"/>
</svg>